<svg xmlns="http://www.w3.org/2000/svg" viewBox="0 0 160 160" width="160" height="160" role="img" aria-label="Ambedkarite Dhamma Association Charlotte icon">
  <defs>
    <clipPath id="adaIconClip">
      <circle cx="80" cy="80" r="58"/>
    </clipPath>
  </defs>

  <circle cx="80" cy="80" r="66" fill="#0B4F6C"/>
  <circle cx="80" cy="80" r="66" fill="none" stroke="#C9962C" stroke-width="2.5"/>

  <g stroke="#C9962C" stroke-width="2">
    <line x1="80" y1="16" x2="80" y2="28" transform="rotate(0 80 80)"/>
    <line x1="80" y1="16" x2="80" y2="28" transform="rotate(30 80 80)"/>
    <line x1="80" y1="16" x2="80" y2="28" transform="rotate(60 80 80)"/>
    <line x1="80" y1="16" x2="80" y2="28" transform="rotate(90 80 80)"/>
    <line x1="80" y1="16" x2="80" y2="28" transform="rotate(120 80 80)"/>
    <line x1="80" y1="16" x2="80" y2="28" transform="rotate(150 80 80)"/>
    <line x1="80" y1="16" x2="80" y2="28" transform="rotate(180 80 80)"/>
    <line x1="80" y1="16" x2="80" y2="28" transform="rotate(210 80 80)"/>
    <line x1="80" y1="16" x2="80" y2="28" transform="rotate(240 80 80)"/>
    <line x1="80" y1="16" x2="80" y2="28" transform="rotate(270 80 80)"/>
    <line x1="80" y1="16" x2="80" y2="28" transform="rotate(300 80 80)"/>
    <line x1="80" y1="16" x2="80" y2="28" transform="rotate(330 80 80)"/>
  </g>

  <g clip-path="url(#adaIconClip)">
    <circle cx="80" cy="80" r="58" fill="#0B4F6C"/>
    <g fill="#F1ECE1">
      <path d="M80 44
               c11 0 20 9 20 20.2
               c0 6.3 -2.9 12 -7.3 15.8
               a30.5 30.5 0 0 1 8.8 5.4
               c7 6 11 14.4 11 23.5
               l0 21
               c0 5 -4 9 -8.8 9
               l-47.4 0
               c-4.8 0 -8.8 -4 -8.8 -9
               l0 -21
               c0 -9.1 4.1 -17.5 11 -23.5
               a30.5 30.5 0 0 1 8.8 -5.4
               c-4.4 -3.8 -7.3 -9.5 -7.3 -15.8
               c0 -11.2 9 -20.2 20 -20.2 z"/>
    </g>
    <g stroke="#0B4F6C" stroke-width="2.6" fill="none" stroke-linecap="round">
      <circle cx="72" cy="63" r="6.2"/>
      <circle cx="88" cy="63" r="6.2"/>
      <line x1="78.2" y1="63" x2="81.8" y2="63"/>
      <line x1="65.8" y1="63" x2="61" y2="64.5"/>
      <line x1="94.2" y1="63" x2="99" y2="64.5"/>
    </g>
  </g>
</svg>
