<svg xmlns="http://www.w3.org/2000/svg" viewBox="0 0 620 150" width="620" height="150" role="img" aria-label="Ambedkarite Dhamma Association Charlotte logo">
  <defs>
    <clipPath id="adaCircleClip">
      <circle cx="76" cy="75" r="54"/>
    </clipPath>
  </defs>

  <circle cx="76" cy="75" r="62" fill="#FBF9F5" stroke="#0B4F6C" stroke-width="2.5"/>

  <g stroke="#C9962C" stroke-width="2">
    <line x1="76" y1="13" x2="76" y2="25" transform="rotate(0 76 75)"/>
    <line x1="76" y1="13" x2="76" y2="25" transform="rotate(30 76 75)"/>
    <line x1="76" y1="13" x2="76" y2="25" transform="rotate(60 76 75)"/>
    <line x1="76" y1="13" x2="76" y2="25" transform="rotate(90 76 75)"/>
    <line x1="76" y1="13" x2="76" y2="25" transform="rotate(120 76 75)"/>
    <line x1="76" y1="13" x2="76" y2="25" transform="rotate(150 76 75)"/>
    <line x1="76" y1="13" x2="76" y2="25" transform="rotate(180 76 75)"/>
    <line x1="76" y1="13" x2="76" y2="25" transform="rotate(210 76 75)"/>
    <line x1="76" y1="13" x2="76" y2="25" transform="rotate(240 76 75)"/>
    <line x1="76" y1="13" x2="76" y2="25" transform="rotate(270 76 75)"/>
    <line x1="76" y1="13" x2="76" y2="25" transform="rotate(300 76 75)"/>
    <line x1="76" y1="13" x2="76" y2="25" transform="rotate(330 76 75)"/>
  </g>

  <g clip-path="url(#adaCircleClip)">
    <circle cx="76" cy="75" r="54" fill="#FBF9F5"/>

    <g fill="#0B4F6C">
      <path d="M76 40
               c10.5 0 19 8.6 19 19.2
               c0 6 -2.7 11.4 -6.9 15
               a29 29 0 0 1 8.4 5.1
               c6.6 5.7 10.5 13.7 10.5 22.3
               l0 20
               c0 4.7 -3.8 8.4 -8.4 8.4
               l-45.2 0
               c-4.6 0 -8.4 -3.7 -8.4 -8.4
               l0 -20
               c0 -8.6 3.9 -16.6 10.5 -22.3
               a29 29 0 0 1 8.4 -5.1
               c-4.2 -3.6 -6.9 -9 -6.9 -15
               c0 -10.6 8.5 -19.2 19 -19.2 z"/>
    </g>

    <path d="M50 96 c6 -10 15 -15 26 -15 c11 0 20 5 26 15 l0 3 l-52 0 z" fill="#0B4F6C" opacity="0.001"/>

    <g stroke="#FBF9F5" stroke-width="2.6" fill="none" stroke-linecap="round">
      <circle cx="68" cy="60" r="6"/>
      <circle cx="84" cy="60" r="6"/>
      <line x1="74" y1="60" x2="78" y2="60"/>
      <line x1="62" y1="60" x2="58" y2="61.5"/>
      <line x1="90" y1="60" x2="94" y2="61.5"/>
    </g>
  </g>

  <text x="156" y="62" font-family="Georgia, 'Times New Roman', serif" font-size="26" font-weight="700" fill="#0B4F6C">Ambedkarite Dhamma Association</text>
  <text x="156" y="88" font-family="Georgia, 'Times New Roman', serif" font-size="19" fill="#4A5568">Charlotte</text>
  <line x1="156" y1="101" x2="400" y2="101" stroke="#C9962C" stroke-width="2"/>
  <text x="156" y="121" font-family="Arial, sans-serif" font-size="12.5" letter-spacing="2" fill="#C9962C">EQUALITY · EDUCATION · SERVICE</text>
</svg>
