<svg xmlns="http://www.w3.org/2000/svg" viewBox="0 0 640 160" width="640" height="160">
  <defs>
    <clipPath id="circleClip2">
      <circle cx="80" cy="80" r="58"/>
    </clipPath>
  </defs>

  <circle cx="80" cy="80" r="66" fill="#FBF9F5" stroke="#0B4F6C" stroke-width="2.5"/>

  <!-- Dharma wheel spokes around the ring -->
  <g stroke="#C9962C" stroke-width="2">
    <g id="spokes2">
      <line x1="80" y1="14" x2="80" y2="26"/>
    </g>
  </g>
  <g stroke="#C9962C" stroke-width="2">
    <line x1="80" y1="14" x2="80" y2="26" transform="rotate(0 80 80)"/>
    <line x1="80" y1="14" x2="80" y2="26" transform="rotate(30 80 80)"/>
    <line x1="80" y1="14" x2="80" y2="26" transform="rotate(60 80 80)"/>
    <line x1="80" y1="14" x2="80" y2="26" transform="rotate(90 80 80)"/>
    <line x1="80" y1="14" x2="80" y2="26" transform="rotate(120 80 80)"/>
    <line x1="80" y1="14" x2="80" y2="26" transform="rotate(150 80 80)"/>
    <line x1="80" y1="14" x2="80" y2="26" transform="rotate(180 80 80)"/>
    <line x1="80" y1="14" x2="80" y2="26" transform="rotate(210 80 80)"/>
    <line x1="80" y1="14" x2="80" y2="26" transform="rotate(240 80 80)"/>
    <line x1="80" y1="14" x2="80" y2="26" transform="rotate(270 80 80)"/>
    <line x1="80" y1="14" x2="80" y2="26" transform="rotate(300 80 80)"/>
    <line x1="80" y1="14" x2="80" y2="26" transform="rotate(330 80 80)"/>
  </g>

  <g clip-path="url(#circleClip2)">
    <circle cx="80" cy="80" r="58" fill="#FBF9F5"/>
    <g fill="#0B4F6C">
      <path d="M80 44
               c12 0 21 10 21 22
               c0 7 -3 13 -7 18
               c9 4 19 11 23 23
               l0 22
               c0 5 -4 9 -9 9
               l-56 0
               c-5 0-9 -4 -9 -9
               l0 -22
               c4 -12 14 -19 23 -23
               c-4 -5 -7 -11 -7 -18
               c0 -12 9 -22 21 -22 z"/>
    </g>
    <g stroke="#FBF9F5" stroke-width="3" fill="none">
      <circle cx="71" cy="67" r="6.5"/>
      <circle cx="89" cy="67" r="6.5"/>
      <line x1="77.5" y1="67" x2="82.5" y2="67"/>
    </g>
  </g>

  <text x="168" y="70" font-family="Georgia, 'Times New Roman', serif" font-size="27" font-weight="700" fill="#0B4F6C">Ambedkarite Dhamma Association</text>
  <text x="168" y="98" font-family="Georgia, 'Times New Roman', serif" font-size="20" fill="#4A5568">Charlotte</text>
  <line x1="168" y1="112" x2="420" y2="112" stroke="#C9962C" stroke-width="2"/>
  <text x="168" y="132" font-family="Arial, sans-serif" font-size="13" letter-spacing="2" fill="#C9962C">EQUALITY · EDUCATION · SERVICE</text>
</svg>
